<svg xmlns="http://www.w3.org/2000/svg" xmlns:xlink="http://www.w3.org/1999/xlink" width="500" zoomAndPan="magnify" viewBox="0 0 375 374.999991" height="500" preserveAspectRatio="xMidYMid meet" version="1.0"><defs><g/></defs><g fill="#000000" fill-opacity="1"><g transform="translate(51.626953, 203.587487)"><g><path d="M 11.90625 -23.296875 L 11.90625 0 L 3.59375 0 L 3.59375 -22.59375 C 3.59375 -27.03125 4.523438 -30.898438 6.390625 -34.203125 C 8.265625 -37.503906 10.878906 -40.070312 14.234375 -41.90625 C 17.585938 -43.75 21.546875 -44.671875 26.109375 -44.671875 C 30.546875 -44.671875 34.410156 -43.75 37.703125 -41.90625 C 41.003906 -40.070312 43.570312 -37.503906 45.40625 -34.203125 C 47.25 -30.898438 48.171875 -27.03125 48.171875 -22.59375 L 48.171875 0 L 39.765625 0 L 39.765625 -23.296875 C 39.765625 -27.390625 38.476562 -30.675781 35.90625 -33.15625 C 33.34375 -35.632812 29.957031 -36.875 25.75 -36.875 C 21.664062 -36.875 18.335938 -35.617188 15.765625 -33.109375 C 13.191406 -30.597656 11.90625 -27.328125 11.90625 -23.296875 Z M 11.90625 -23.296875 "/></g></g></g><g fill="#38b6ff" fill-opacity="1"><g transform="translate(103.494137, 203.587487)"><g><path d="M 3.59375 -21.375 C 3.59375 -26.101562 4.539062 -30.21875 6.4375 -33.71875 C 8.332031 -37.226562 11.015625 -39.929688 14.484375 -41.828125 C 17.960938 -43.722656 22.007812 -44.671875 26.625 -44.671875 C 31.238281 -44.671875 35.269531 -43.722656 38.71875 -41.828125 C 42.164062 -39.929688 44.851562 -37.273438 46.78125 -33.859375 C 48.707031 -30.441406 49.671875 -26.457031 49.671875 -21.90625 L 49.671875 0 L 41.34375 0 L 41.34375 -8.671875 L 40.46875 -8.578125 L 40.46875 -7.796875 C 40.46875 -6.628906 39.882812 -5.375 38.71875 -4.03125 C 37.550781 -2.6875 35.8125 -1.53125 33.5 -0.5625 C 31.195312 0.394531 28.320312 0.875 24.875 0.875 C 20.664062 0.875 16.96875 -0.0390625 13.78125 -1.875 C 10.601562 -3.71875 8.109375 -6.316406 6.296875 -9.671875 C 4.492188 -13.035156 3.59375 -16.9375 3.59375 -21.375 Z M 11.90625 -21.90625 C 11.90625 -17.289062 13.191406 -13.640625 15.765625 -10.953125 C 18.335938 -8.265625 21.867188 -6.921875 26.359375 -6.921875 C 31.796875 -6.921875 35.632812 -8.304688 37.875 -11.078125 C 40.125 -13.847656 41.25 -17.457031 41.25 -21.90625 C 41.25 -26.507812 39.9375 -30.15625 37.3125 -32.84375 C 34.6875 -35.53125 31.125 -36.875 26.625 -36.875 C 22.1875 -36.875 18.625 -35.5 15.9375 -32.75 C 13.25 -30.007812 11.90625 -26.394531 11.90625 -21.90625 Z M 11.90625 -21.90625 "/></g></g></g><g fill="#38b6ff" fill-opacity="1"><g transform="translate(156.841145, 203.587487)"><g><path d="M 3.59375 -57.375 C 3.59375 -58.832031 4.054688 -60 4.984375 -60.875 C 5.921875 -61.75 7.117188 -62.1875 8.578125 -62.1875 C 10.097656 -62.1875 11.328125 -61.75 12.265625 -60.875 C 13.203125 -60 13.671875 -58.832031 13.671875 -57.375 C 13.671875 -55.914062 13.203125 -54.75 12.265625 -53.875 C 11.328125 -53 10.097656 -52.5625 8.578125 -52.5625 C 7.117188 -52.5625 5.921875 -53 4.984375 -53.875 C 4.054688 -54.75 3.59375 -55.914062 3.59375 -57.375 Z M 4.46875 0 L 4.46875 -43.796875 L 12.78125 -43.796875 L 12.78125 0 Z M 4.46875 0 "/></g></g></g><g fill="#000000" fill-opacity="1"><g transform="translate(174.099601, 203.587487)"><g><path d="M 11.90625 -21.90625 C 11.90625 -17.457031 13.25 -13.847656 15.9375 -11.078125 C 18.625 -8.304688 22.1875 -6.921875 26.625 -6.921875 C 30.25 -6.921875 33.226562 -7.851562 35.5625 -9.71875 C 37.894531 -11.59375 39.472656 -14.046875 40.296875 -17.078125 L 48.796875 -17.078125 C 47.859375 -11.585938 45.445312 -7.222656 41.5625 -3.984375 C 37.675781 -0.742188 32.695312 0.875 26.625 0.875 C 22.007812 0.875 17.976562 -0.0703125 14.53125 -1.96875 C 11.09375 -3.863281 8.410156 -6.519531 6.484375 -9.9375 C 4.554688 -13.351562 3.59375 -17.34375 3.59375 -21.90625 C 3.59375 -26.457031 4.554688 -30.441406 6.484375 -33.859375 C 8.410156 -37.273438 11.09375 -39.929688 14.53125 -41.828125 C 17.976562 -43.722656 22.007812 -44.671875 26.625 -44.671875 C 32.695312 -44.671875 37.675781 -43.050781 41.5625 -39.8125 C 45.445312 -36.570312 47.859375 -32.207031 48.796875 -26.71875 L 40.296875 -26.71875 C 39.472656 -29.8125 37.894531 -32.273438 35.5625 -34.109375 C 33.226562 -35.953125 30.25 -36.875 26.625 -36.875 C 22.1875 -36.875 18.625 -35.5 15.9375 -32.75 C 13.25 -30.007812 11.90625 -26.394531 11.90625 -21.90625 Z M 11.90625 -21.90625 "/></g></g></g><g fill="#000000" fill-opacity="1"><g transform="translate(226.220237, 203.587487)"><g><path d="M 3.59375 -21.90625 C 3.59375 -26.457031 4.554688 -30.441406 6.484375 -33.859375 C 8.410156 -37.273438 11.09375 -39.929688 14.53125 -41.828125 C 17.976562 -43.722656 22.007812 -44.671875 26.625 -44.671875 C 31.238281 -44.671875 35.269531 -43.722656 38.71875 -41.828125 C 42.164062 -39.929688 44.851562 -37.273438 46.78125 -33.859375 C 48.707031 -30.441406 49.671875 -26.457031 49.671875 -21.90625 C 49.671875 -17.34375 48.707031 -13.351562 46.78125 -9.9375 C 44.851562 -6.519531 42.164062 -3.863281 38.71875 -1.96875 C 35.269531 -0.0703125 31.238281 0.875 26.625 0.875 C 22.007812 0.875 17.976562 -0.0703125 14.53125 -1.96875 C 11.09375 -3.863281 8.410156 -6.519531 6.484375 -9.9375 C 4.554688 -13.351562 3.59375 -17.34375 3.59375 -21.90625 Z M 11.90625 -21.90625 C 11.90625 -17.457031 13.25 -13.847656 15.9375 -11.078125 C 18.625 -8.304688 22.1875 -6.921875 26.625 -6.921875 C 31.0625 -6.921875 34.625 -8.304688 37.3125 -11.078125 C 40 -13.847656 41.34375 -17.457031 41.34375 -21.90625 C 41.34375 -26.394531 40 -30.007812 37.3125 -32.75 C 34.625 -35.5 31.0625 -36.875 26.625 -36.875 C 22.1875 -36.875 18.625 -35.5 15.9375 -32.75 C 13.25 -30.007812 11.90625 -26.394531 11.90625 -21.90625 Z M 11.90625 -21.90625 "/></g></g></g><g fill="#000000" fill-opacity="1"><g transform="translate(278.516049, 203.587487)"><g><path d="M 3.421875 -31.890625 C 3.421875 -36.203125 5.097656 -39.425781 8.453125 -41.5625 C 11.804688 -43.695312 16.753906 -44.765625 23.296875 -44.765625 C 26.566406 -44.765625 29.53125 -44.570312 32.1875 -44.1875 C 34.84375 -43.8125 37.34375 -43.1875 39.6875 -42.3125 L 39.6875 -34.515625 C 38.164062 -35.097656 35.867188 -35.753906 32.796875 -36.484375 C 29.734375 -37.210938 26.273438 -37.578125 22.421875 -37.578125 C 15.296875 -37.578125 11.734375 -35.882812 11.734375 -32.5 C 11.734375 -31.039062 12.445312 -29.882812 13.875 -29.03125 C 15.3125 -28.1875 17.164062 -27.488281 19.4375 -26.9375 C 21.71875 -26.382812 24.113281 -25.8125 26.625 -25.21875 C 29.132812 -24.632812 31.53125 -23.875 33.8125 -22.9375 C 36.09375 -22.007812 37.945312 -20.742188 39.375 -19.140625 C 40.800781 -17.535156 41.515625 -15.414062 41.515625 -12.78125 C 41.515625 -8.519531 39.847656 -5.160156 36.515625 -2.703125 C 33.191406 -0.253906 28.234375 0.96875 21.640625 0.96875 C 18.421875 0.96875 15.484375 0.773438 12.828125 0.390625 C 10.171875 0.015625 7.644531 -0.609375 5.25 -1.484375 L 5.25 -9.28125 C 6.769531 -8.695312 9.078125 -8.039062 12.171875 -7.3125 C 15.265625 -6.582031 18.710938 -6.21875 22.515625 -6.21875 C 26.128906 -6.21875 28.796875 -6.800781 30.515625 -7.96875 C 32.242188 -9.132812 33.109375 -10.535156 33.109375 -12.171875 C 33.109375 -13.628906 32.390625 -14.78125 30.953125 -15.625 C 29.523438 -16.476562 27.6875 -17.164062 25.4375 -17.6875 C 23.195312 -18.21875 20.804688 -18.789062 18.265625 -19.40625 C 15.722656 -20.019531 13.328125 -20.789062 11.078125 -21.71875 C 8.828125 -22.65625 6.988281 -23.925781 5.5625 -25.53125 C 4.132812 -27.132812 3.421875 -29.253906 3.421875 -31.890625 Z M 3.421875 -31.890625 "/></g></g></g><g fill="#000000" fill-opacity="1"><g transform="translate(47.707033, 236.652407)"><g><path d="M 8.828125 -2.46875 L 8.828125 -11.453125 L 10.28125 -11.453125 L 10.28125 0 L 8.734375 0 L 2.71875 -8.984375 L 2.71875 0 L 1.265625 0 L 1.265625 -11.453125 L 2.8125 -11.453125 Z M 8.828125 -2.46875 "/></g></g></g><g fill="#000000" fill-opacity="1"><g transform="translate(59.256261, 236.652407)"><g><path d="M 4.546875 -8.484375 C 5.222656 -8.484375 5.769531 -8.414062 6.1875 -8.28125 C 6.613281 -8.144531 6.953125 -7.953125 7.203125 -7.703125 C 7.429688 -7.453125 7.585938 -7.175781 7.671875 -6.875 C 7.765625 -6.582031 7.8125 -6.191406 7.8125 -5.703125 L 7.8125 -2.359375 C 7.8125 -1.273438 7.957031 -0.488281 8.25 0 L 6.78125 0 C 6.644531 -0.289062 6.550781 -0.632812 6.5 -1.03125 C 5.988281 -0.601562 5.488281 -0.289062 5 -0.09375 C 4.507812 0.09375 4.003906 0.1875 3.484375 0.1875 C 2.585938 0.1875 1.882812 -0.03125 1.375 -0.46875 C 0.863281 -0.90625 0.609375 -1.476562 0.609375 -2.1875 C 0.609375 -2.5625 0.691406 -2.921875 0.859375 -3.265625 C 1.035156 -3.617188 1.269531 -3.890625 1.5625 -4.078125 C 1.882812 -4.296875 2.210938 -4.453125 2.546875 -4.546875 C 2.878906 -4.640625 3.285156 -4.710938 3.765625 -4.765625 C 4.273438 -4.816406 4.78125 -4.890625 5.28125 -4.984375 C 5.789062 -5.078125 6.164062 -5.171875 6.40625 -5.265625 L 6.40625 -5.609375 C 6.40625 -6.179688 6.25 -6.609375 5.9375 -6.890625 C 5.632812 -7.179688 5.117188 -7.328125 4.390625 -7.328125 C 3.691406 -7.328125 3.191406 -7.203125 2.890625 -6.953125 C 2.585938 -6.710938 2.363281 -6.3125 2.21875 -5.75 L 0.84375 -5.921875 C 1.039062 -6.816406 1.441406 -7.46875 2.046875 -7.875 C 2.660156 -8.28125 3.492188 -8.484375 4.546875 -8.484375 Z M 4.390625 -3.6875 C 3.835938 -3.59375 3.414062 -3.503906 3.125 -3.421875 C 2.832031 -3.347656 2.585938 -3.21875 2.390625 -3.03125 C 2.203125 -2.84375 2.109375 -2.570312 2.109375 -2.21875 C 2.109375 -1.800781 2.257812 -1.476562 2.5625 -1.25 C 2.875 -1.019531 3.304688 -0.90625 3.859375 -0.90625 C 4.179688 -0.90625 4.523438 -0.972656 4.890625 -1.109375 C 5.265625 -1.242188 5.59375 -1.476562 5.875 -1.8125 C 6.050781 -2.019531 6.179688 -2.253906 6.265625 -2.515625 C 6.359375 -2.785156 6.40625 -3.128906 6.40625 -3.546875 L 6.40625 -4.15625 C 5.976562 -3.988281 5.304688 -3.832031 4.390625 -3.6875 Z M 4.390625 -3.6875 "/></g></g></g><g fill="#000000" fill-opacity="1"><g transform="translate(68.422085, 236.652407)"><g><path d="M 2.703125 -8.28125 L 4.109375 -8.28125 L 4.109375 -7.234375 L 2.703125 -7.234375 L 2.703125 -2.09375 C 2.703125 -1.726562 2.753906 -1.472656 2.859375 -1.328125 C 2.960938 -1.179688 3.171875 -1.109375 3.484375 -1.109375 C 3.554688 -1.109375 3.765625 -1.132812 4.109375 -1.1875 L 4.3125 0.0625 C 3.894531 0.144531 3.550781 0.1875 3.28125 0.1875 C 2.738281 0.1875 2.320312 0.0976562 2.03125 -0.078125 C 1.738281 -0.253906 1.539062 -0.5 1.4375 -0.8125 C 1.34375 -1.125 1.296875 -1.53125 1.296875 -2.03125 L 1.296875 -7.234375 L 0.265625 -7.234375 L 0.265625 -8.28125 L 1.296875 -8.28125 L 1.296875 -10.359375 L 2.703125 -11.203125 Z M 2.703125 -8.28125 "/></g></g></g><g fill="#000000" fill-opacity="1"><g transform="translate(72.869019, 236.652407)"><g><path d="M 2.484375 -9.859375 L 1.078125 -9.859375 L 1.078125 -11.453125 L 2.484375 -11.453125 Z M 2.484375 0 L 1.078125 0 L 1.078125 -8.28125 L 2.484375 -8.28125 Z M 2.484375 0 "/></g></g></g><g fill="#000000" fill-opacity="1"><g transform="translate(76.148208, 236.652407)"><g><path d="M 3.390625 -3.546875 C 3.484375 -3.296875 3.625 -2.867188 3.8125 -2.265625 L 4.015625 -1.640625 C 4.253906 -2.429688 4.425781 -2.957031 4.53125 -3.21875 L 6.375 -8.28125 L 7.828125 -8.28125 L 4.6875 0 L 3.359375 0 L 0.203125 -8.28125 L 1.703125 -8.28125 Z M 3.390625 -3.546875 "/></g></g></g><g fill="#000000" fill-opacity="1"><g transform="translate(83.602374, 236.652407)"><g><path d="M 4.5 -8.484375 C 5.300781 -8.484375 5.984375 -8.289062 6.546875 -7.90625 C 7.117188 -7.53125 7.546875 -7.019531 7.828125 -6.375 C 8.117188 -5.738281 8.265625 -5.023438 8.265625 -4.234375 L 8.265625 -3.796875 L 2.078125 -3.796875 C 2.117188 -2.910156 2.367188 -2.21875 2.828125 -1.71875 C 3.285156 -1.21875 3.875 -0.96875 4.59375 -0.96875 C 5.132812 -0.96875 5.582031 -1.113281 5.9375 -1.40625 C 6.300781 -1.695312 6.578125 -2.117188 6.765625 -2.671875 L 8.21875 -2.5 C 8 -1.664062 7.578125 -1.007812 6.953125 -0.53125 C 6.328125 -0.0625 5.5625 0.171875 4.65625 0.171875 C 3.382812 0.171875 2.394531 -0.195312 1.6875 -0.9375 C 0.976562 -1.6875 0.625 -2.734375 0.625 -4.078125 C 0.625 -4.972656 0.78125 -5.75 1.09375 -6.40625 C 1.414062 -7.070312 1.867188 -7.582031 2.453125 -7.9375 C 3.035156 -8.300781 3.71875 -8.484375 4.5 -8.484375 Z M 2.15625 -4.953125 L 6.78125 -4.953125 C 6.75 -5.742188 6.503906 -6.335938 6.046875 -6.734375 C 5.597656 -7.128906 5.082031 -7.328125 4.5 -7.328125 C 3.832031 -7.328125 3.285156 -7.101562 2.859375 -6.65625 C 2.441406 -6.207031 2.207031 -5.640625 2.15625 -4.953125 Z M 2.15625 -4.953125 "/></g></g></g><g fill="#000000" fill-opacity="1"><g transform="translate(92.496241, 236.652407)"><g/></g></g><g fill="#000000" fill-opacity="1"><g transform="translate(96.943175, 236.652407)"><g><path d="M 10.703125 0 L 8.96875 0 L 7.625 -3.484375 L 2.84375 -3.484375 L 1.59375 0 L -0.015625 0 L 4.390625 -11.453125 L 6.015625 -11.453125 Z M 4.546875 -8.0625 L 3.296875 -4.703125 L 7.171875 -4.703125 L 5.765625 -8.484375 C 5.585938 -8.929688 5.390625 -9.519531 5.171875 -10.25 C 5.171875 -10.195312 5.101562 -9.925781 4.96875 -9.4375 C 4.84375 -8.957031 4.703125 -8.5 4.546875 -8.0625 Z M 4.546875 -8.0625 "/></g></g></g><g fill="#000000" fill-opacity="1"><g transform="translate(107.612615, 236.652407)"><g><path d="M 2.984375 0 L 1.46875 0 L 1.46875 -11.453125 L 2.984375 -11.453125 Z M 2.984375 0 "/></g></g></g><g fill="#000000" fill-opacity="1"><g transform="translate(112.059549, 236.652407)"><g/></g></g><g fill="#000000" fill-opacity="1"><g transform="translate(116.506482, 236.652407)"><g><path d="M 6.21875 -11.640625 C 7.382812 -11.640625 8.351562 -11.34375 9.125 -10.75 C 9.90625 -10.15625 10.445312 -9.335938 10.75 -8.296875 L 9.25 -7.953125 C 9 -8.722656 8.628906 -9.316406 8.140625 -9.734375 C 7.648438 -10.148438 7 -10.359375 6.1875 -10.359375 C 5 -10.359375 4.066406 -9.960938 3.390625 -9.171875 C 2.722656 -8.378906 2.390625 -7.257812 2.390625 -5.8125 C 2.390625 -4.289062 2.71875 -3.125 3.375 -2.3125 C 4.03125 -1.507812 4.941406 -1.109375 6.109375 -1.109375 C 6.941406 -1.109375 7.648438 -1.351562 8.234375 -1.84375 C 8.828125 -2.34375 9.222656 -3.066406 9.421875 -4.015625 L 10.9375 -3.625 C 10.625 -2.425781 10.054688 -1.488281 9.234375 -0.8125 C 8.410156 -0.144531 7.382812 0.1875 6.15625 0.1875 C 5.3125 0.1875 4.59375 0.078125 4 -0.140625 C 3.40625 -0.367188 2.898438 -0.703125 2.484375 -1.140625 C 1.898438 -1.742188 1.472656 -2.453125 1.203125 -3.265625 C 0.941406 -4.078125 0.8125 -4.925781 0.8125 -5.8125 C 0.8125 -6.988281 1.035156 -8.015625 1.484375 -8.890625 C 1.941406 -9.773438 2.578125 -10.453125 3.390625 -10.921875 C 4.210938 -11.398438 5.15625 -11.640625 6.21875 -11.640625 Z M 6.21875 -11.640625 "/></g></g></g><g fill="#000000" fill-opacity="1"><g transform="translate(128.05571, 236.652407)"><g><path d="M 4.453125 -8.484375 C 5.078125 -8.484375 5.6875 -8.34375 6.28125 -8.0625 C 6.875 -7.78125 7.363281 -7.316406 7.75 -6.671875 C 8.144531 -6.035156 8.34375 -5.191406 8.34375 -4.140625 C 8.34375 -3.210938 8.175781 -2.425781 7.84375 -1.78125 C 7.507812 -1.132812 7.046875 -0.644531 6.453125 -0.3125 C 5.867188 0.0078125 5.203125 0.171875 4.453125 0.171875 C 3.335938 0.171875 2.429688 -0.171875 1.734375 -0.859375 C 0.953125 -1.617188 0.5625 -2.710938 0.5625 -4.140625 C 0.5625 -5.066406 0.722656 -5.851562 1.046875 -6.5 C 1.378906 -7.15625 1.835938 -7.648438 2.421875 -7.984375 C 3.015625 -8.316406 3.691406 -8.484375 4.453125 -8.484375 Z M 2 -4.140625 C 2 -3.140625 2.21875 -2.359375 2.65625 -1.796875 C 3.101562 -1.242188 3.703125 -0.96875 4.453125 -0.96875 C 5.179688 -0.96875 5.769531 -1.242188 6.21875 -1.796875 C 6.664062 -2.347656 6.890625 -3.128906 6.890625 -4.140625 C 6.890625 -5.117188 6.671875 -5.894531 6.234375 -6.46875 C 5.796875 -7.039062 5.195312 -7.328125 4.4375 -7.328125 C 3.707031 -7.328125 3.117188 -7.046875 2.671875 -6.484375 C 2.222656 -5.921875 2 -5.140625 2 -4.140625 Z M 2 -4.140625 "/></g></g></g><g fill="#000000" fill-opacity="1"><g transform="translate(136.949577, 236.652407)"><g><path d="M 4.828125 -8.484375 C 5.429688 -8.484375 5.925781 -8.359375 6.3125 -8.109375 C 6.695312 -7.859375 6.976562 -7.5 7.15625 -7.03125 C 7.476562 -7.5 7.835938 -7.859375 8.234375 -8.109375 C 8.640625 -8.359375 9.132812 -8.484375 9.71875 -8.484375 C 10.539062 -8.484375 11.175781 -8.242188 11.625 -7.765625 C 12.070312 -7.296875 12.296875 -6.625 12.296875 -5.75 L 12.296875 0 L 10.890625 0 L 10.890625 -5.328125 C 10.890625 -6.003906 10.769531 -6.492188 10.53125 -6.796875 C 10.300781 -7.109375 9.921875 -7.265625 9.390625 -7.265625 C 8.722656 -7.265625 8.21875 -7.035156 7.875 -6.578125 C 7.539062 -6.128906 7.375 -5.5625 7.375 -4.875 L 7.375 0 L 5.96875 0 L 5.96875 -5.453125 C 5.96875 -6.066406 5.847656 -6.519531 5.609375 -6.8125 C 5.367188 -7.113281 5 -7.265625 4.5 -7.265625 C 4.09375 -7.265625 3.707031 -7.148438 3.34375 -6.921875 C 2.988281 -6.691406 2.742188 -6.351562 2.609375 -5.90625 C 2.503906 -5.582031 2.453125 -5.097656 2.453125 -4.453125 L 2.453125 0 L 1.046875 0 L 1.046875 -8.28125 L 2.296875 -8.28125 L 2.296875 -7.140625 C 2.597656 -7.597656 2.96875 -7.9375 3.40625 -8.15625 C 3.84375 -8.375 4.316406 -8.484375 4.828125 -8.484375 Z M 4.828125 -8.484375 "/></g></g></g><g fill="#000000" fill-opacity="1"><g transform="translate(150.274378, 236.652407)"><g><path d="M 4.828125 -8.484375 C 5.429688 -8.484375 5.925781 -8.359375 6.3125 -8.109375 C 6.695312 -7.859375 6.976562 -7.5 7.15625 -7.03125 C 7.476562 -7.5 7.835938 -7.859375 8.234375 -8.109375 C 8.640625 -8.359375 9.132812 -8.484375 9.71875 -8.484375 C 10.539062 -8.484375 11.175781 -8.242188 11.625 -7.765625 C 12.070312 -7.296875 12.296875 -6.625 12.296875 -5.75 L 12.296875 0 L 10.890625 0 L 10.890625 -5.328125 C 10.890625 -6.003906 10.769531 -6.492188 10.53125 -6.796875 C 10.300781 -7.109375 9.921875 -7.265625 9.390625 -7.265625 C 8.722656 -7.265625 8.21875 -7.035156 7.875 -6.578125 C 7.539062 -6.128906 7.375 -5.5625 7.375 -4.875 L 7.375 0 L 5.96875 0 L 5.96875 -5.453125 C 5.96875 -6.066406 5.847656 -6.519531 5.609375 -6.8125 C 5.367188 -7.113281 5 -7.265625 4.5 -7.265625 C 4.09375 -7.265625 3.707031 -7.148438 3.34375 -6.921875 C 2.988281 -6.691406 2.742188 -6.351562 2.609375 -5.90625 C 2.503906 -5.582031 2.453125 -5.097656 2.453125 -4.453125 L 2.453125 0 L 1.046875 0 L 1.046875 -8.28125 L 2.296875 -8.28125 L 2.296875 -7.140625 C 2.597656 -7.597656 2.96875 -7.9375 3.40625 -8.15625 C 3.84375 -8.375 4.316406 -8.484375 4.828125 -8.484375 Z M 4.828125 -8.484375 "/></g></g></g><g fill="#000000" fill-opacity="1"><g transform="translate(163.59918, 236.652407)"><g><path d="M 4.5 -8.484375 C 5.300781 -8.484375 5.984375 -8.289062 6.546875 -7.90625 C 7.117188 -7.53125 7.546875 -7.019531 7.828125 -6.375 C 8.117188 -5.738281 8.265625 -5.023438 8.265625 -4.234375 L 8.265625 -3.796875 L 2.078125 -3.796875 C 2.117188 -2.910156 2.367188 -2.21875 2.828125 -1.71875 C 3.285156 -1.21875 3.875 -0.96875 4.59375 -0.96875 C 5.132812 -0.96875 5.582031 -1.113281 5.9375 -1.40625 C 6.300781 -1.695312 6.578125 -2.117188 6.765625 -2.671875 L 8.21875 -2.5 C 8 -1.664062 7.578125 -1.007812 6.953125 -0.53125 C 6.328125 -0.0625 5.5625 0.171875 4.65625 0.171875 C 3.382812 0.171875 2.394531 -0.195312 1.6875 -0.9375 C 0.976562 -1.6875 0.625 -2.734375 0.625 -4.078125 C 0.625 -4.972656 0.78125 -5.75 1.09375 -6.40625 C 1.414062 -7.070312 1.867188 -7.582031 2.453125 -7.9375 C 3.035156 -8.300781 3.71875 -8.484375 4.5 -8.484375 Z M 2.15625 -4.953125 L 6.78125 -4.953125 C 6.75 -5.742188 6.503906 -6.335938 6.046875 -6.734375 C 5.597656 -7.128906 5.082031 -7.328125 4.5 -7.328125 C 3.832031 -7.328125 3.285156 -7.101562 2.859375 -6.65625 C 2.441406 -6.207031 2.207031 -5.640625 2.15625 -4.953125 Z M 2.15625 -4.953125 "/></g></g></g><g fill="#000000" fill-opacity="1"><g transform="translate(172.493047, 236.652407)"><g><path d="M 4.109375 -8.484375 C 4.585938 -8.484375 5.0625 -8.332031 5.53125 -8.03125 L 5.0625 -6.734375 C 4.71875 -6.941406 4.359375 -7.046875 3.984375 -7.046875 C 3.453125 -7.046875 3.0625 -6.800781 2.8125 -6.3125 C 2.5625 -5.820312 2.4375 -5.195312 2.4375 -4.4375 L 2.4375 0 L 1.03125 0 L 1.03125 -8.28125 L 2.28125 -8.28125 L 2.28125 -7.046875 C 2.550781 -7.523438 2.816406 -7.882812 3.078125 -8.125 C 3.335938 -8.363281 3.679688 -8.484375 4.109375 -8.484375 Z M 4.109375 -8.484375 "/></g></g></g><g fill="#000000" fill-opacity="1"><g transform="translate(177.819767, 236.652407)"><g><path d="M 4.546875 -8.484375 C 5.367188 -8.484375 6.0625 -8.253906 6.625 -7.796875 C 7.1875 -7.347656 7.550781 -6.703125 7.71875 -5.859375 L 6.359375 -5.640625 C 6.234375 -6.148438 6.015625 -6.554688 5.703125 -6.859375 C 5.398438 -7.171875 4.988281 -7.328125 4.46875 -7.328125 C 3.71875 -7.328125 3.128906 -7.0625 2.703125 -6.53125 C 2.273438 -6 2.0625 -5.21875 2.0625 -4.1875 C 2.0625 -3.144531 2.257812 -2.347656 2.65625 -1.796875 C 3.0625 -1.242188 3.640625 -0.96875 4.390625 -0.96875 C 4.992188 -0.96875 5.460938 -1.148438 5.796875 -1.515625 C 6.140625 -1.890625 6.363281 -2.398438 6.46875 -3.046875 L 7.859375 -2.859375 C 7.703125 -1.898438 7.3125 -1.15625 6.6875 -0.625 C 6.070312 -0.09375 5.304688 0.171875 4.390625 0.171875 C 3.203125 0.171875 2.273438 -0.210938 1.609375 -0.984375 C 0.953125 -1.753906 0.625 -2.84375 0.625 -4.25 C 0.625 -5.570312 0.972656 -6.609375 1.671875 -7.359375 C 2.367188 -8.109375 3.328125 -8.484375 4.546875 -8.484375 Z M 4.546875 -8.484375 "/></g></g></g><g fill="#000000" fill-opacity="1"><g transform="translate(185.817848, 236.652407)"><g><path d="M 4.5 -8.484375 C 5.300781 -8.484375 5.984375 -8.289062 6.546875 -7.90625 C 7.117188 -7.53125 7.546875 -7.019531 7.828125 -6.375 C 8.117188 -5.738281 8.265625 -5.023438 8.265625 -4.234375 L 8.265625 -3.796875 L 2.078125 -3.796875 C 2.117188 -2.910156 2.367188 -2.21875 2.828125 -1.71875 C 3.285156 -1.21875 3.875 -0.96875 4.59375 -0.96875 C 5.132812 -0.96875 5.582031 -1.113281 5.9375 -1.40625 C 6.300781 -1.695312 6.578125 -2.117188 6.765625 -2.671875 L 8.21875 -2.5 C 8 -1.664062 7.578125 -1.007812 6.953125 -0.53125 C 6.328125 -0.0625 5.5625 0.171875 4.65625 0.171875 C 3.382812 0.171875 2.394531 -0.195312 1.6875 -0.9375 C 0.976562 -1.6875 0.625 -2.734375 0.625 -4.078125 C 0.625 -4.972656 0.78125 -5.75 1.09375 -6.40625 C 1.414062 -7.070312 1.867188 -7.582031 2.453125 -7.9375 C 3.035156 -8.300781 3.71875 -8.484375 4.5 -8.484375 Z M 2.15625 -4.953125 L 6.78125 -4.953125 C 6.75 -5.742188 6.503906 -6.335938 6.046875 -6.734375 C 5.597656 -7.128906 5.082031 -7.328125 4.5 -7.328125 C 3.832031 -7.328125 3.285156 -7.101562 2.859375 -6.65625 C 2.441406 -6.207031 2.207031 -5.640625 2.15625 -4.953125 Z M 2.15625 -4.953125 "/></g></g></g><g fill="#000000" fill-opacity="1"><g transform="translate(194.711715, 236.652407)"><g/></g></g><g fill="#000000" fill-opacity="1"><g transform="translate(199.158649, 236.652407)"><g><path d="M 6.03125 -11.640625 C 7.175781 -11.640625 8.175781 -11.394531 9.03125 -10.90625 C 9.882812 -10.414062 10.546875 -9.722656 11.015625 -8.828125 C 11.484375 -7.929688 11.71875 -6.894531 11.71875 -5.71875 C 11.71875 -4.539062 11.476562 -3.503906 11 -2.609375 C 10.519531 -1.710938 9.867188 -1.019531 9.046875 -0.53125 C 8.234375 -0.0507812 7.316406 0.1875 6.296875 0.1875 C 5.191406 0.1875 4.21875 -0.0664062 3.375 -0.578125 C 2.539062 -1.085938 1.894531 -1.78125 1.4375 -2.65625 C 0.976562 -3.539062 0.75 -4.515625 0.75 -5.578125 C 0.75 -6.796875 0.976562 -7.863281 1.4375 -8.78125 C 1.894531 -9.695312 2.523438 -10.398438 3.328125 -10.890625 C 4.128906 -11.390625 5.03125 -11.640625 6.03125 -11.640625 Z M 2.3125 -5.546875 C 2.3125 -4.660156 2.476562 -3.878906 2.8125 -3.203125 C 3.144531 -2.535156 3.609375 -2.019531 4.203125 -1.65625 C 4.796875 -1.289062 5.46875 -1.109375 6.21875 -1.109375 C 7 -1.109375 7.6875 -1.289062 8.28125 -1.65625 C 8.875 -2.019531 9.332031 -2.546875 9.65625 -3.234375 C 9.976562 -3.929688 10.140625 -4.757812 10.140625 -5.71875 C 10.140625 -6.65625 9.976562 -7.472656 9.65625 -8.171875 C 9.332031 -8.878906 8.875 -9.421875 8.28125 -9.796875 C 7.695312 -10.171875 7.03125 -10.359375 6.28125 -10.359375 C 5.03125 -10.359375 4.054688 -9.9375 3.359375 -9.09375 C 2.660156 -8.25 2.3125 -7.066406 2.3125 -5.546875 Z M 2.3125 -5.546875 "/></g></g></g><g fill="#000000" fill-opacity="1"><g transform="translate(211.603663, 236.652407)"><g><path d="M 4.75 -8.484375 C 5.457031 -8.484375 6.078125 -8.304688 6.609375 -7.953125 C 7.140625 -7.597656 7.550781 -7.101562 7.84375 -6.46875 C 8.132812 -5.832031 8.28125 -5.097656 8.28125 -4.265625 C 8.28125 -3.359375 8.117188 -2.566406 7.796875 -1.890625 C 7.484375 -1.222656 7.050781 -0.710938 6.5 -0.359375 C 5.957031 -0.00390625 5.347656 0.171875 4.671875 0.171875 C 4.234375 0.171875 3.828125 0.078125 3.453125 -0.109375 C 3.078125 -0.296875 2.757812 -0.546875 2.5 -0.859375 L 2.5 3.1875 L 1.09375 3.1875 L 1.09375 -8.28125 L 2.375 -8.28125 L 2.375 -7.21875 C 2.675781 -7.644531 3.007812 -7.960938 3.375 -8.171875 C 3.75 -8.378906 4.207031 -8.484375 4.75 -8.484375 Z M 2.359375 -4.09375 C 2.359375 -3.09375 2.554688 -2.320312 2.953125 -1.78125 C 3.359375 -1.238281 3.898438 -0.96875 4.578125 -0.96875 C 5.234375 -0.96875 5.773438 -1.242188 6.203125 -1.796875 C 6.628906 -2.359375 6.84375 -3.160156 6.84375 -4.203125 C 6.84375 -5.191406 6.640625 -5.96875 6.234375 -6.53125 C 5.828125 -7.09375 5.289062 -7.375 4.625 -7.375 C 4.1875 -7.375 3.796875 -7.238281 3.453125 -6.96875 C 3.109375 -6.695312 2.835938 -6.3125 2.640625 -5.8125 C 2.453125 -5.3125 2.359375 -4.738281 2.359375 -4.09375 Z M 2.359375 -4.09375 "/></g></g></g><g fill="#000000" fill-opacity="1"><g transform="translate(220.49753, 236.652407)"><g><path d="M 4.5 -8.484375 C 5.300781 -8.484375 5.984375 -8.289062 6.546875 -7.90625 C 7.117188 -7.53125 7.546875 -7.019531 7.828125 -6.375 C 8.117188 -5.738281 8.265625 -5.023438 8.265625 -4.234375 L 8.265625 -3.796875 L 2.078125 -3.796875 C 2.117188 -2.910156 2.367188 -2.21875 2.828125 -1.71875 C 3.285156 -1.21875 3.875 -0.96875 4.59375 -0.96875 C 5.132812 -0.96875 5.582031 -1.113281 5.9375 -1.40625 C 6.300781 -1.695312 6.578125 -2.117188 6.765625 -2.671875 L 8.21875 -2.5 C 8 -1.664062 7.578125 -1.007812 6.953125 -0.53125 C 6.328125 -0.0625 5.5625 0.171875 4.65625 0.171875 C 3.382812 0.171875 2.394531 -0.195312 1.6875 -0.9375 C 0.976562 -1.6875 0.625 -2.734375 0.625 -4.078125 C 0.625 -4.972656 0.78125 -5.75 1.09375 -6.40625 C 1.414062 -7.070312 1.867188 -7.582031 2.453125 -7.9375 C 3.035156 -8.300781 3.71875 -8.484375 4.5 -8.484375 Z M 2.15625 -4.953125 L 6.78125 -4.953125 C 6.75 -5.742188 6.503906 -6.335938 6.046875 -6.734375 C 5.597656 -7.128906 5.082031 -7.328125 4.5 -7.328125 C 3.832031 -7.328125 3.285156 -7.101562 2.859375 -6.65625 C 2.441406 -6.207031 2.207031 -5.640625 2.15625 -4.953125 Z M 2.15625 -4.953125 "/></g></g></g><g fill="#000000" fill-opacity="1"><g transform="translate(229.391397, 236.652407)"><g><path d="M 4.109375 -8.484375 C 4.585938 -8.484375 5.0625 -8.332031 5.53125 -8.03125 L 5.0625 -6.734375 C 4.71875 -6.941406 4.359375 -7.046875 3.984375 -7.046875 C 3.453125 -7.046875 3.0625 -6.800781 2.8125 -6.3125 C 2.5625 -5.820312 2.4375 -5.195312 2.4375 -4.4375 L 2.4375 0 L 1.03125 0 L 1.03125 -8.28125 L 2.28125 -8.28125 L 2.28125 -7.046875 C 2.550781 -7.523438 2.816406 -7.882812 3.078125 -8.125 C 3.335938 -8.363281 3.679688 -8.484375 4.109375 -8.484375 Z M 4.109375 -8.484375 "/></g></g></g><g fill="#000000" fill-opacity="1"><g transform="translate(234.55814, 236.652407)"><g><path d="M 4.546875 -8.484375 C 5.222656 -8.484375 5.769531 -8.414062 6.1875 -8.28125 C 6.613281 -8.144531 6.953125 -7.953125 7.203125 -7.703125 C 7.429688 -7.453125 7.585938 -7.175781 7.671875 -6.875 C 7.765625 -6.582031 7.8125 -6.191406 7.8125 -5.703125 L 7.8125 -2.359375 C 7.8125 -1.273438 7.957031 -0.488281 8.25 0 L 6.78125 0 C 6.644531 -0.289062 6.550781 -0.632812 6.5 -1.03125 C 5.988281 -0.601562 5.488281 -0.289062 5 -0.09375 C 4.507812 0.09375 4.003906 0.1875 3.484375 0.1875 C 2.585938 0.1875 1.882812 -0.03125 1.375 -0.46875 C 0.863281 -0.90625 0.609375 -1.476562 0.609375 -2.1875 C 0.609375 -2.5625 0.691406 -2.921875 0.859375 -3.265625 C 1.035156 -3.617188 1.269531 -3.890625 1.5625 -4.078125 C 1.882812 -4.296875 2.210938 -4.453125 2.546875 -4.546875 C 2.878906 -4.640625 3.285156 -4.710938 3.765625 -4.765625 C 4.273438 -4.816406 4.78125 -4.890625 5.28125 -4.984375 C 5.789062 -5.078125 6.164062 -5.171875 6.40625 -5.265625 L 6.40625 -5.609375 C 6.40625 -6.179688 6.25 -6.609375 5.9375 -6.890625 C 5.632812 -7.179688 5.117188 -7.328125 4.390625 -7.328125 C 3.691406 -7.328125 3.191406 -7.203125 2.890625 -6.953125 C 2.585938 -6.710938 2.363281 -6.3125 2.21875 -5.75 L 0.84375 -5.921875 C 1.039062 -6.816406 1.441406 -7.46875 2.046875 -7.875 C 2.660156 -8.28125 3.492188 -8.484375 4.546875 -8.484375 Z M 4.390625 -3.6875 C 3.835938 -3.59375 3.414062 -3.503906 3.125 -3.421875 C 2.832031 -3.347656 2.585938 -3.21875 2.390625 -3.03125 C 2.203125 -2.84375 2.109375 -2.570312 2.109375 -2.21875 C 2.109375 -1.800781 2.257812 -1.476562 2.5625 -1.25 C 2.875 -1.019531 3.304688 -0.90625 3.859375 -0.90625 C 4.179688 -0.90625 4.523438 -0.972656 4.890625 -1.109375 C 5.265625 -1.242188 5.59375 -1.476562 5.875 -1.8125 C 6.050781 -2.019531 6.179688 -2.253906 6.265625 -2.515625 C 6.359375 -2.785156 6.40625 -3.128906 6.40625 -3.546875 L 6.40625 -4.15625 C 5.976562 -3.988281 5.304688 -3.832031 4.390625 -3.6875 Z M 4.390625 -3.6875 "/></g></g></g><g fill="#000000" fill-opacity="1"><g transform="translate(243.723965, 236.652407)"><g><path d="M 2.703125 -8.28125 L 4.109375 -8.28125 L 4.109375 -7.234375 L 2.703125 -7.234375 L 2.703125 -2.09375 C 2.703125 -1.726562 2.753906 -1.472656 2.859375 -1.328125 C 2.960938 -1.179688 3.171875 -1.109375 3.484375 -1.109375 C 3.554688 -1.109375 3.765625 -1.132812 4.109375 -1.1875 L 4.3125 0.0625 C 3.894531 0.144531 3.550781 0.1875 3.28125 0.1875 C 2.738281 0.1875 2.320312 0.0976562 2.03125 -0.078125 C 1.738281 -0.253906 1.539062 -0.5 1.4375 -0.8125 C 1.34375 -1.125 1.296875 -1.53125 1.296875 -2.03125 L 1.296875 -7.234375 L 0.265625 -7.234375 L 0.265625 -8.28125 L 1.296875 -8.28125 L 1.296875 -10.359375 L 2.703125 -11.203125 Z M 2.703125 -8.28125 "/></g></g></g><g fill="#000000" fill-opacity="1"><g transform="translate(248.170887, 236.652407)"><g><path d="M 2.484375 -9.859375 L 1.078125 -9.859375 L 1.078125 -11.453125 L 2.484375 -11.453125 Z M 2.484375 0 L 1.078125 0 L 1.078125 -8.28125 L 2.484375 -8.28125 Z M 2.484375 0 "/></g></g></g><g fill="#000000" fill-opacity="1"><g transform="translate(251.722034, 236.652407)"><g><path d="M 4.984375 -8.484375 C 5.585938 -8.484375 6.101562 -8.363281 6.53125 -8.125 C 6.96875 -7.894531 7.285156 -7.597656 7.484375 -7.234375 C 7.617188 -6.984375 7.710938 -6.71875 7.765625 -6.4375 C 7.816406 -6.15625 7.84375 -5.800781 7.84375 -5.375 L 7.84375 0 L 6.4375 0 L 6.4375 -5.125 C 6.4375 -6.550781 5.851562 -7.265625 4.6875 -7.265625 C 4.25 -7.265625 3.84375 -7.15625 3.46875 -6.9375 C 3.101562 -6.726562 2.84375 -6.421875 2.6875 -6.015625 C 2.5625 -5.671875 2.5 -5.210938 2.5 -4.640625 L 2.5 0 L 1.09375 0 L 1.09375 -8.28125 L 2.359375 -8.28125 L 2.359375 -7.125 C 2.984375 -8.03125 3.859375 -8.484375 4.984375 -8.484375 Z M 4.984375 -8.484375 "/></g></g></g><g fill="#000000" fill-opacity="1"><g transform="translate(260.615924, 236.652407)"><g><path d="M 4.15625 -8.484375 C 5.113281 -8.484375 5.914062 -8.085938 6.5625 -7.296875 L 6.5625 -8.28125 L 7.859375 -8.28125 L 7.859375 -0.984375 C 7.859375 0.222656 7.703125 1.125 7.390625 1.71875 C 7.117188 2.21875 6.710938 2.613281 6.171875 2.90625 C 5.640625 3.207031 4.953125 3.359375 4.109375 3.359375 C 3.410156 3.359375 2.8125 3.242188 2.3125 3.015625 C 1.8125 2.796875 1.4375 2.5 1.1875 2.125 C 0.9375 1.757812 0.8125 1.359375 0.8125 0.921875 L 0.828125 0.6875 L 2.1875 0.890625 L 2.1875 0.921875 C 2.257812 1.359375 2.453125 1.679688 2.765625 1.890625 C 3.085938 2.097656 3.554688 2.203125 4.171875 2.203125 C 4.585938 2.203125 4.953125 2.132812 5.265625 2 C 5.585938 1.863281 5.835938 1.671875 6.015625 1.421875 C 6.171875 1.203125 6.28125 0.9375 6.34375 0.625 C 6.40625 0.320312 6.4375 -0.046875 6.4375 -0.484375 L 6.4375 -1.09375 C 5.800781 -0.363281 5.039062 0 4.15625 0 C 3.445312 0 2.816406 -0.175781 2.265625 -0.53125 C 1.722656 -0.894531 1.300781 -1.394531 1 -2.03125 C 0.695312 -2.664062 0.546875 -3.390625 0.546875 -4.203125 C 0.546875 -5.054688 0.691406 -5.804688 0.984375 -6.453125 C 1.285156 -7.097656 1.710938 -7.597656 2.265625 -7.953125 C 2.816406 -8.304688 3.445312 -8.484375 4.15625 -8.484375 Z M 1.984375 -4.296875 C 1.984375 -3.273438 2.191406 -2.492188 2.609375 -1.953125 C 3.023438 -1.421875 3.585938 -1.15625 4.296875 -1.15625 C 4.597656 -1.15625 4.941406 -1.253906 5.328125 -1.453125 C 5.722656 -1.648438 6.035156 -2.015625 6.265625 -2.546875 C 6.453125 -2.972656 6.546875 -3.523438 6.546875 -4.203125 C 6.546875 -5.203125 6.332031 -5.972656 5.90625 -6.515625 C 5.476562 -7.054688 4.914062 -7.328125 4.21875 -7.328125 C 3.570312 -7.328125 3.035156 -7.054688 2.609375 -6.515625 C 2.191406 -5.984375 1.984375 -5.242188 1.984375 -4.296875 Z M 1.984375 -4.296875 "/></g></g></g><g fill="#000000" fill-opacity="1"><g transform="translate(269.509768, 236.652407)"><g/></g></g><g fill="#000000" fill-opacity="1"><g transform="translate(273.956713, 236.652407)"><g><path d="M 5.1875 -11.640625 C 6.488281 -11.640625 7.515625 -11.335938 8.265625 -10.734375 C 9.023438 -10.128906 9.429688 -9.289062 9.484375 -8.21875 L 8.03125 -8.125 C 7.945312 -8.863281 7.679688 -9.40625 7.234375 -9.75 C 6.785156 -10.101562 6.125 -10.28125 5.25 -10.28125 C 4.414062 -10.28125 3.769531 -10.128906 3.3125 -9.828125 C 2.851562 -9.523438 2.625 -9.113281 2.625 -8.59375 C 2.625 -8.25 2.722656 -7.957031 2.921875 -7.71875 C 3.128906 -7.476562 3.421875 -7.304688 3.796875 -7.203125 C 3.878906 -7.179688 4.191406 -7.085938 4.734375 -6.921875 C 5.273438 -6.753906 5.96875 -6.582031 6.8125 -6.40625 C 7.8125 -6.175781 8.5625 -5.773438 9.0625 -5.203125 C 9.570312 -4.628906 9.828125 -3.972656 9.828125 -3.234375 C 9.828125 -2.609375 9.65625 -2.035156 9.3125 -1.515625 C 8.976562 -0.992188 8.488281 -0.578125 7.84375 -0.265625 C 7.207031 0.0351562 6.453125 0.1875 5.578125 0.1875 C 4.578125 0.1875 3.710938 0.03125 2.984375 -0.28125 C 2.265625 -0.601562 1.710938 -1.054688 1.328125 -1.640625 C 0.941406 -2.222656 0.738281 -2.90625 0.71875 -3.6875 L 2.15625 -3.8125 C 2.21875 -2.90625 2.570312 -2.238281 3.21875 -1.8125 C 3.875 -1.382812 4.644531 -1.171875 5.53125 -1.171875 C 6.414062 -1.171875 7.113281 -1.347656 7.625 -1.703125 C 8.132812 -2.066406 8.390625 -2.5625 8.390625 -3.1875 C 8.390625 -4.03125 7.710938 -4.613281 6.359375 -4.9375 L 5.453125 -5.171875 C 4.898438 -5.296875 4.257812 -5.46875 3.53125 -5.6875 C 2.800781 -5.894531 2.226562 -6.25 1.8125 -6.75 C 1.394531 -7.257812 1.1875 -7.84375 1.1875 -8.5 C 1.1875 -9.09375 1.34375 -9.628906 1.65625 -10.109375 C 1.976562 -10.585938 2.441406 -10.960938 3.046875 -11.234375 C 3.648438 -11.503906 4.363281 -11.640625 5.1875 -11.640625 Z M 5.1875 -11.640625 "/></g></g></g><g fill="#000000" fill-opacity="1"><g transform="translate(284.626153, 236.652407)"><g><path d="M 3.515625 -3.4375 C 3.753906 -2.757812 3.945312 -2.132812 4.09375 -1.5625 C 4.257812 -2.195312 4.441406 -2.789062 4.640625 -3.34375 L 6.453125 -8.28125 L 7.859375 -8.28125 L 4.703125 0.140625 C 4.398438 0.941406 4.140625 1.550781 3.921875 1.96875 C 3.710938 2.394531 3.445312 2.734375 3.125 2.984375 C 2.8125 3.234375 2.40625 3.359375 1.90625 3.359375 C 1.570312 3.359375 1.265625 3.304688 0.984375 3.203125 L 0.828125 1.875 C 1.171875 1.957031 1.445312 2 1.65625 2 C 1.988281 2 2.25 1.9375 2.4375 1.8125 C 2.632812 1.695312 2.78125 1.546875 2.875 1.359375 C 2.976562 1.171875 3.101562 0.867188 3.25 0.453125 L 3.40625 0.015625 L 0.25 -8.28125 L 1.78125 -8.28125 Z M 3.515625 -3.4375 "/></g></g></g><g fill="#000000" fill-opacity="1"><g transform="translate(292.624222, 236.652407)"><g><path d="M 3.8125 -8.484375 C 4.75 -8.484375 5.503906 -8.285156 6.078125 -7.890625 C 6.648438 -7.503906 6.984375 -6.925781 7.078125 -6.15625 L 5.703125 -5.96875 C 5.628906 -6.382812 5.445312 -6.710938 5.15625 -6.953125 C 4.875 -7.203125 4.453125 -7.328125 3.890625 -7.328125 C 3.328125 -7.328125 2.882812 -7.226562 2.5625 -7.03125 C 2.25 -6.84375 2.09375 -6.578125 2.09375 -6.234375 C 2.09375 -6.003906 2.1875 -5.8125 2.375 -5.65625 C 2.5625 -5.5 2.78125 -5.378906 3.03125 -5.296875 C 3.289062 -5.222656 3.679688 -5.117188 4.203125 -4.984375 C 4.878906 -4.828125 5.425781 -4.664062 5.84375 -4.5 C 6.269531 -4.34375 6.632812 -4.097656 6.9375 -3.765625 C 7.238281 -3.441406 7.390625 -3.003906 7.390625 -2.453125 C 7.390625 -1.972656 7.253906 -1.53125 6.984375 -1.125 C 6.722656 -0.726562 6.34375 -0.410156 5.84375 -0.171875 C 5.351562 0.0546875 4.785156 0.171875 4.140625 0.171875 C 3.035156 0.171875 2.1875 -0.046875 1.59375 -0.484375 C 1.007812 -0.921875 0.644531 -1.585938 0.5 -2.484375 L 1.890625 -2.6875 C 1.960938 -2.125 2.1875 -1.695312 2.5625 -1.40625 C 2.945312 -1.113281 3.4375 -0.96875 4.03125 -0.96875 C 4.632812 -0.96875 5.101562 -1.09375 5.4375 -1.34375 C 5.78125 -1.601562 5.953125 -1.914062 5.953125 -2.28125 C 5.953125 -2.632812 5.78125 -2.894531 5.4375 -3.0625 C 5.101562 -3.238281 4.59375 -3.40625 3.90625 -3.5625 C 3.21875 -3.726562 2.664062 -3.882812 2.25 -4.03125 C 1.84375 -4.1875 1.488281 -4.429688 1.1875 -4.765625 C 0.882812 -5.097656 0.734375 -5.539062 0.734375 -6.09375 C 0.734375 -6.539062 0.851562 -6.945312 1.09375 -7.3125 C 1.332031 -7.675781 1.679688 -7.960938 2.140625 -8.171875 C 2.609375 -8.378906 3.164062 -8.484375 3.8125 -8.484375 Z M 3.8125 -8.484375 "/></g></g></g><g fill="#000000" fill-opacity="1"><g transform="translate(300.622315, 236.652407)"><g><path d="M 2.703125 -8.28125 L 4.109375 -8.28125 L 4.109375 -7.234375 L 2.703125 -7.234375 L 2.703125 -2.09375 C 2.703125 -1.726562 2.753906 -1.472656 2.859375 -1.328125 C 2.960938 -1.179688 3.171875 -1.109375 3.484375 -1.109375 C 3.554688 -1.109375 3.765625 -1.132812 4.109375 -1.1875 L 4.3125 0.0625 C 3.894531 0.144531 3.550781 0.1875 3.28125 0.1875 C 2.738281 0.1875 2.320312 0.0976562 2.03125 -0.078125 C 1.738281 -0.253906 1.539062 -0.5 1.4375 -0.8125 C 1.34375 -1.125 1.296875 -1.53125 1.296875 -2.03125 L 1.296875 -7.234375 L 0.265625 -7.234375 L 0.265625 -8.28125 L 1.296875 -8.28125 L 1.296875 -10.359375 L 2.703125 -11.203125 Z M 2.703125 -8.28125 "/></g></g></g><g fill="#000000" fill-opacity="1"><g transform="translate(305.06926, 236.652407)"><g><path d="M 4.5 -8.484375 C 5.300781 -8.484375 5.984375 -8.289062 6.546875 -7.90625 C 7.117188 -7.53125 7.546875 -7.019531 7.828125 -6.375 C 8.117188 -5.738281 8.265625 -5.023438 8.265625 -4.234375 L 8.265625 -3.796875 L 2.078125 -3.796875 C 2.117188 -2.910156 2.367188 -2.21875 2.828125 -1.71875 C 3.285156 -1.21875 3.875 -0.96875 4.59375 -0.96875 C 5.132812 -0.96875 5.582031 -1.113281 5.9375 -1.40625 C 6.300781 -1.695312 6.578125 -2.117188 6.765625 -2.671875 L 8.21875 -2.5 C 8 -1.664062 7.578125 -1.007812 6.953125 -0.53125 C 6.328125 -0.0625 5.5625 0.171875 4.65625 0.171875 C 3.382812 0.171875 2.394531 -0.195312 1.6875 -0.9375 C 0.976562 -1.6875 0.625 -2.734375 0.625 -4.078125 C 0.625 -4.972656 0.78125 -5.75 1.09375 -6.40625 C 1.414062 -7.070312 1.867188 -7.582031 2.453125 -7.9375 C 3.035156 -8.300781 3.71875 -8.484375 4.5 -8.484375 Z M 2.15625 -4.953125 L 6.78125 -4.953125 C 6.75 -5.742188 6.503906 -6.335938 6.046875 -6.734375 C 5.597656 -7.128906 5.082031 -7.328125 4.5 -7.328125 C 3.832031 -7.328125 3.285156 -7.101562 2.859375 -6.65625 C 2.441406 -6.207031 2.207031 -5.640625 2.15625 -4.953125 Z M 2.15625 -4.953125 "/></g></g></g><g fill="#000000" fill-opacity="1"><g transform="translate(313.963104, 236.652407)"><g><path d="M 4.828125 -8.484375 C 5.429688 -8.484375 5.925781 -8.359375 6.3125 -8.109375 C 6.695312 -7.859375 6.976562 -7.5 7.15625 -7.03125 C 7.476562 -7.5 7.835938 -7.859375 8.234375 -8.109375 C 8.640625 -8.359375 9.132812 -8.484375 9.71875 -8.484375 C 10.539062 -8.484375 11.175781 -8.242188 11.625 -7.765625 C 12.070312 -7.296875 12.296875 -6.625 12.296875 -5.75 L 12.296875 0 L 10.890625 0 L 10.890625 -5.328125 C 10.890625 -6.003906 10.769531 -6.492188 10.53125 -6.796875 C 10.300781 -7.109375 9.921875 -7.265625 9.390625 -7.265625 C 8.722656 -7.265625 8.21875 -7.035156 7.875 -6.578125 C 7.539062 -6.128906 7.375 -5.5625 7.375 -4.875 L 7.375 0 L 5.96875 0 L 5.96875 -5.453125 C 5.96875 -6.066406 5.847656 -6.519531 5.609375 -6.8125 C 5.367188 -7.113281 5 -7.265625 4.5 -7.265625 C 4.09375 -7.265625 3.707031 -7.148438 3.34375 -6.921875 C 2.988281 -6.691406 2.742188 -6.351562 2.609375 -5.90625 C 2.503906 -5.582031 2.453125 -5.097656 2.453125 -4.453125 L 2.453125 0 L 1.046875 0 L 1.046875 -8.28125 L 2.296875 -8.28125 L 2.296875 -7.140625 C 2.597656 -7.597656 2.96875 -7.9375 3.40625 -8.15625 C 3.84375 -8.375 4.316406 -8.484375 4.828125 -8.484375 Z M 4.828125 -8.484375 "/></g></g></g></svg>