<svg xmlns="http://www.w3.org/2000/svg" xmlns:xlink="http://www.w3.org/1999/xlink" width="500" zoomAndPan="magnify" viewBox="0 0 375 374.999991" height="500" preserveAspectRatio="xMidYMid meet" version="1.0"><defs><g/></defs><g fill="#000000" fill-opacity="1"><g transform="translate(51.626953, 209.110753)"><g><path d="M 11.90625 -23.296875 L 11.90625 0 L 3.59375 0 L 3.59375 -22.59375 C 3.59375 -27.03125 4.523438 -30.898438 6.390625 -34.203125 C 8.265625 -37.503906 10.878906 -40.070312 14.234375 -41.90625 C 17.585938 -43.75 21.546875 -44.671875 26.109375 -44.671875 C 30.546875 -44.671875 34.410156 -43.75 37.703125 -41.90625 C 41.003906 -40.070312 43.570312 -37.503906 45.40625 -34.203125 C 47.25 -30.898438 48.171875 -27.03125 48.171875 -22.59375 L 48.171875 0 L 39.765625 0 L 39.765625 -23.296875 C 39.765625 -27.390625 38.476562 -30.675781 35.90625 -33.15625 C 33.34375 -35.632812 29.957031 -36.875 25.75 -36.875 C 21.664062 -36.875 18.335938 -35.617188 15.765625 -33.109375 C 13.191406 -30.597656 11.90625 -27.328125 11.90625 -23.296875 Z M 11.90625 -23.296875 "/></g></g></g><g fill="#38b6ff" fill-opacity="1"><g transform="translate(103.494137, 209.110753)"><g><path d="M 3.59375 -21.375 C 3.59375 -26.101562 4.539062 -30.21875 6.4375 -33.71875 C 8.332031 -37.226562 11.015625 -39.929688 14.484375 -41.828125 C 17.960938 -43.722656 22.007812 -44.671875 26.625 -44.671875 C 31.238281 -44.671875 35.269531 -43.722656 38.71875 -41.828125 C 42.164062 -39.929688 44.851562 -37.273438 46.78125 -33.859375 C 48.707031 -30.441406 49.671875 -26.457031 49.671875 -21.90625 L 49.671875 0 L 41.34375 0 L 41.34375 -8.671875 L 40.46875 -8.578125 L 40.46875 -7.796875 C 40.46875 -6.628906 39.882812 -5.375 38.71875 -4.03125 C 37.550781 -2.6875 35.8125 -1.53125 33.5 -0.5625 C 31.195312 0.394531 28.320312 0.875 24.875 0.875 C 20.664062 0.875 16.96875 -0.0390625 13.78125 -1.875 C 10.601562 -3.71875 8.109375 -6.316406 6.296875 -9.671875 C 4.492188 -13.035156 3.59375 -16.9375 3.59375 -21.375 Z M 11.90625 -21.90625 C 11.90625 -17.289062 13.191406 -13.640625 15.765625 -10.953125 C 18.335938 -8.265625 21.867188 -6.921875 26.359375 -6.921875 C 31.796875 -6.921875 35.632812 -8.304688 37.875 -11.078125 C 40.125 -13.847656 41.25 -17.457031 41.25 -21.90625 C 41.25 -26.507812 39.9375 -30.15625 37.3125 -32.84375 C 34.6875 -35.53125 31.125 -36.875 26.625 -36.875 C 22.1875 -36.875 18.625 -35.5 15.9375 -32.75 C 13.25 -30.007812 11.90625 -26.394531 11.90625 -21.90625 Z M 11.90625 -21.90625 "/></g></g></g><g fill="#38b6ff" fill-opacity="1"><g transform="translate(156.841145, 209.110753)"><g><path d="M 3.59375 -57.375 C 3.59375 -58.832031 4.054688 -60 4.984375 -60.875 C 5.921875 -61.75 7.117188 -62.1875 8.578125 -62.1875 C 10.097656 -62.1875 11.328125 -61.75 12.265625 -60.875 C 13.203125 -60 13.671875 -58.832031 13.671875 -57.375 C 13.671875 -55.914062 13.203125 -54.75 12.265625 -53.875 C 11.328125 -53 10.097656 -52.5625 8.578125 -52.5625 C 7.117188 -52.5625 5.921875 -53 4.984375 -53.875 C 4.054688 -54.75 3.59375 -55.914062 3.59375 -57.375 Z M 4.46875 0 L 4.46875 -43.796875 L 12.78125 -43.796875 L 12.78125 0 Z M 4.46875 0 "/></g></g></g><g fill="#000000" fill-opacity="1"><g transform="translate(174.099601, 209.110753)"><g><path d="M 11.90625 -21.90625 C 11.90625 -17.457031 13.25 -13.847656 15.9375 -11.078125 C 18.625 -8.304688 22.1875 -6.921875 26.625 -6.921875 C 30.25 -6.921875 33.226562 -7.851562 35.5625 -9.71875 C 37.894531 -11.59375 39.472656 -14.046875 40.296875 -17.078125 L 48.796875 -17.078125 C 47.859375 -11.585938 45.445312 -7.222656 41.5625 -3.984375 C 37.675781 -0.742188 32.695312 0.875 26.625 0.875 C 22.007812 0.875 17.976562 -0.0703125 14.53125 -1.96875 C 11.09375 -3.863281 8.410156 -6.519531 6.484375 -9.9375 C 4.554688 -13.351562 3.59375 -17.34375 3.59375 -21.90625 C 3.59375 -26.457031 4.554688 -30.441406 6.484375 -33.859375 C 8.410156 -37.273438 11.09375 -39.929688 14.53125 -41.828125 C 17.976562 -43.722656 22.007812 -44.671875 26.625 -44.671875 C 32.695312 -44.671875 37.675781 -43.050781 41.5625 -39.8125 C 45.445312 -36.570312 47.859375 -32.207031 48.796875 -26.71875 L 40.296875 -26.71875 C 39.472656 -29.8125 37.894531 -32.273438 35.5625 -34.109375 C 33.226562 -35.953125 30.25 -36.875 26.625 -36.875 C 22.1875 -36.875 18.625 -35.5 15.9375 -32.75 C 13.25 -30.007812 11.90625 -26.394531 11.90625 -21.90625 Z M 11.90625 -21.90625 "/></g></g></g><g fill="#000000" fill-opacity="1"><g transform="translate(226.220237, 209.110753)"><g><path d="M 3.59375 -21.90625 C 3.59375 -26.457031 4.554688 -30.441406 6.484375 -33.859375 C 8.410156 -37.273438 11.09375 -39.929688 14.53125 -41.828125 C 17.976562 -43.722656 22.007812 -44.671875 26.625 -44.671875 C 31.238281 -44.671875 35.269531 -43.722656 38.71875 -41.828125 C 42.164062 -39.929688 44.851562 -37.273438 46.78125 -33.859375 C 48.707031 -30.441406 49.671875 -26.457031 49.671875 -21.90625 C 49.671875 -17.34375 48.707031 -13.351562 46.78125 -9.9375 C 44.851562 -6.519531 42.164062 -3.863281 38.71875 -1.96875 C 35.269531 -0.0703125 31.238281 0.875 26.625 0.875 C 22.007812 0.875 17.976562 -0.0703125 14.53125 -1.96875 C 11.09375 -3.863281 8.410156 -6.519531 6.484375 -9.9375 C 4.554688 -13.351562 3.59375 -17.34375 3.59375 -21.90625 Z M 11.90625 -21.90625 C 11.90625 -17.457031 13.25 -13.847656 15.9375 -11.078125 C 18.625 -8.304688 22.1875 -6.921875 26.625 -6.921875 C 31.0625 -6.921875 34.625 -8.304688 37.3125 -11.078125 C 40 -13.847656 41.34375 -17.457031 41.34375 -21.90625 C 41.34375 -26.394531 40 -30.007812 37.3125 -32.75 C 34.625 -35.5 31.0625 -36.875 26.625 -36.875 C 22.1875 -36.875 18.625 -35.5 15.9375 -32.75 C 13.25 -30.007812 11.90625 -26.394531 11.90625 -21.90625 Z M 11.90625 -21.90625 "/></g></g></g><g fill="#000000" fill-opacity="1"><g transform="translate(278.516049, 209.110753)"><g><path d="M 3.421875 -31.890625 C 3.421875 -36.203125 5.097656 -39.425781 8.453125 -41.5625 C 11.804688 -43.695312 16.753906 -44.765625 23.296875 -44.765625 C 26.566406 -44.765625 29.53125 -44.570312 32.1875 -44.1875 C 34.84375 -43.8125 37.34375 -43.1875 39.6875 -42.3125 L 39.6875 -34.515625 C 38.164062 -35.097656 35.867188 -35.753906 32.796875 -36.484375 C 29.734375 -37.210938 26.273438 -37.578125 22.421875 -37.578125 C 15.296875 -37.578125 11.734375 -35.882812 11.734375 -32.5 C 11.734375 -31.039062 12.445312 -29.882812 13.875 -29.03125 C 15.3125 -28.1875 17.164062 -27.488281 19.4375 -26.9375 C 21.71875 -26.382812 24.113281 -25.8125 26.625 -25.21875 C 29.132812 -24.632812 31.53125 -23.875 33.8125 -22.9375 C 36.09375 -22.007812 37.945312 -20.742188 39.375 -19.140625 C 40.800781 -17.535156 41.515625 -15.414062 41.515625 -12.78125 C 41.515625 -8.519531 39.847656 -5.160156 36.515625 -2.703125 C 33.191406 -0.253906 28.234375 0.96875 21.640625 0.96875 C 18.421875 0.96875 15.484375 0.773438 12.828125 0.390625 C 10.171875 0.015625 7.644531 -0.609375 5.25 -1.484375 L 5.25 -9.28125 C 6.769531 -8.695312 9.078125 -8.039062 12.171875 -7.3125 C 15.265625 -6.582031 18.710938 -6.21875 22.515625 -6.21875 C 26.128906 -6.21875 28.796875 -6.800781 30.515625 -7.96875 C 32.242188 -9.132812 33.109375 -10.535156 33.109375 -12.171875 C 33.109375 -13.628906 32.390625 -14.78125 30.953125 -15.625 C 29.523438 -16.476562 27.6875 -17.164062 25.4375 -17.6875 C 23.195312 -18.21875 20.804688 -18.789062 18.265625 -19.40625 C 15.722656 -20.019531 13.328125 -20.789062 11.078125 -21.71875 C 8.828125 -22.65625 6.988281 -23.925781 5.5625 -25.53125 C 4.132812 -27.132812 3.421875 -29.253906 3.421875 -31.890625 Z M 3.421875 -31.890625 "/></g></g></g></svg>